<?xml version="1.0" encoding="UTF-8" standalone="no"?>
<!-- Scaffold logo mark — transparent background (no bg rect), for use on the site chrome. -->
<svg
   width="19.402842mm"
   height="19.766607mm"
   viewBox="0 0 19.402842 19.766607"
   version="1.1"
   id="svg1"
   xmlns="http://www.w3.org/2000/svg"
   xmlns:svg="http://www.w3.org/2000/svg">
  <g
     id="layer1"
     transform="translate(9.701421,9.883303) scale(0.78) translate(-9.701421,-9.883303) translate(-94.456247,-108.21411)">
    <path id="path1" d="m 113.68264,115.53119 -0.007,0.004 -6.34294,2.37772 -0.007,-0.004 -6.34294,-2.37772 v -0.004 -4.75544 l 6.35,-2.38125 6.34294,2.37772 0.007,0.004 v 4.68489" style="fill:none;stroke:#e8f0ea;stroke-width:0.352778;stroke-linecap:round;stroke-linejoin:round;stroke-miterlimit:4" />
    <path id="path2" d="m 100.98264,110.77222 6.34647,2.38125 h 0.004 l 6.34294,2.37772" style="fill:none;stroke:#e8f0ea;stroke-width:0.352778;stroke-linecap:round;stroke-linejoin:round;stroke-miterlimit:4" />
    <path id="path3" d="m 113.67558,110.77222 -6.34647,2.38125 -6.34647,2.37772" style="fill:none;stroke:#e8f0ea;stroke-width:0.352778;stroke-linecap:round;stroke-linejoin:round;stroke-miterlimit:4" />
    <path id="path4" d="m 94.632639,117.90892 6.350001,-2.38125" style="fill:none;stroke:#e8f0ea;stroke-width:0.352778;stroke-linecap:round;stroke-linejoin:round;stroke-miterlimit:4" />
    <path id="path5" d="m 107.33264,122.66789 -0.007,0.004 -6.34294,2.37772 -6.349999,-2.38125" style="fill:none;stroke:#e8f0ea;stroke-width:0.352778;stroke-linecap:round;stroke-linejoin:round;stroke-miterlimit:4" />
    <path id="path6" d="m 94.632639,122.51267 v -4.60375 l 6.346471,2.38125 0.0388,0.0141 6.30766,2.36361" style="fill:none;stroke:#e8f0ea;stroke-width:0.352778;stroke-linecap:round;stroke-linejoin:round;stroke-miterlimit:4" />
    <path id="path7" d="m 107.32558,117.90892 -6.34647,2.38125 -6.346474,2.37772" style="fill:none;stroke:#e8f0ea;stroke-width:0.352778;stroke-linecap:round;stroke-linejoin:round;stroke-miterlimit:4" />
    <path id="path8" d="m 100.98264,120.396 v 4.65314 2.75519" style="fill:none;stroke:#e8f0ea;stroke-width:0.352778;stroke-linecap:round;stroke-linejoin:round;stroke-miterlimit:4" />
    <path id="path9" d="m 94.632639,122.51267 v 0.15522 2.667" style="fill:none;stroke:#e8f0ea;stroke-width:0.352778;stroke-linecap:round;stroke-linejoin:round;stroke-miterlimit:4" />
    <path id="path10" d="m 107.33264,113.15347 v 4.75897 0.0141" style="fill:none;stroke:#e8f0ea;stroke-width:0.352778;stroke-linecap:round;stroke-linejoin:round;stroke-miterlimit:4" />
    <path id="path11" d="m 107.33264,125.37722 v -2.70933" style="fill:none;stroke:#e8f0ea;stroke-width:0.352778;stroke-linecap:round;stroke-linejoin:round;stroke-miterlimit:4" />
    <path id="path12" d="m 107.33264,117.92656 v 4.59669 0.14464" style="fill:none;stroke:#e8f0ea;stroke-width:0.352778;stroke-linecap:round;stroke-linejoin:round;stroke-miterlimit:4" />
    <path id="path13" d="m 113.68264,115.45711 v 0.0741 7.47536" style="fill:none;stroke:#e8f0ea;stroke-width:0.352778;stroke-linecap:round;stroke-linejoin:round;stroke-miterlimit:4" />
  </g>
</svg>
